<svg xmlns="http://www.w3.org/2000/svg" version="1.1" xmlns:xlink="http://www.w3.org/1999/xlink" xmlns:svgjs="http://svgjs.com/svgjs" width="499.7" height="500.5"><svg version="1.1" id="SvgjsSvg1000" xmlns="http://www.w3.org/2000/svg" xmlns:xlink="http://www.w3.org/1999/xlink" x="0px" y="0px" viewBox="0 0 499.7 500.5" style="enable-background:new 0 0 499.7 500.5;" xml:space="preserve">
<style type="text/css">
	.st0{fill:#EE2424;stroke:#231F20;stroke-width:5;stroke-miterlimit:10;}
	.st1{fill:#F7EC25;stroke:#231F20;stroke-width:5;stroke-miterlimit:10;}
	.st2{fill:#FFFFFF;stroke:#231F20;stroke-width:5;stroke-miterlimit:10;}
	.st3{fill:#51B848;stroke:#231F20;stroke-width:5;stroke-miterlimit:10;}
	.st4{fill:#424CA0;stroke:#231F20;stroke-width:5;stroke-miterlimit:10;}
	.st5{fill:#EE2E2D;stroke:#231F20;stroke-width:5;stroke-miterlimit:10;}
	.st6{fill:#D2C5CB;stroke:#231F20;stroke-width:5;stroke-miterlimit:10;}
	.st7{fill:#8FD8F8;stroke:#231F20;stroke-width:5;stroke-miterlimit:10;}
	.st8{fill:#EF4142;stroke:#231F20;stroke-width:5;stroke-miterlimit:10;}
	.st9{fill:#585DA9;stroke:#231F20;stroke-width:5;stroke-miterlimit:10;}
	.st10{fill:#EF3E23;stroke:#231F20;stroke-width:5;stroke-miterlimit:10;}
	.st11{fill:#79D1EE;stroke:#231F20;stroke-width:5;stroke-miterlimit:10;}
	.st12{fill:#3EB54A;stroke:#231F20;stroke-width:5;stroke-miterlimit:10;}
	.st13{fill:#70CFEC;stroke:#231F20;stroke-width:5;stroke-miterlimit:10;}
	.st14{fill:#EE2525;stroke:#231F20;stroke-width:5;stroke-miterlimit:10;}
	.st15{fill:#F9F06C;stroke:#231F20;stroke-width:5;stroke-miterlimit:10;}
	.st16{fill:#3C449B;stroke:#231F20;stroke-width:5;stroke-miterlimit:10;}
</style>
<rect x="265.6" y="2.5" class="st0" width="231.5" height="162.9"></rect>
<rect x="405.8" y="165.4" class="st1" width="91.4" height="236.4"></rect>
<rect x="294" y="165.4" class="st2" width="111.8" height="119.3"></rect>
<rect x="208.9" y="284.6" class="st3" width="196.9" height="117.1"></rect>
<rect x="208.9" y="165.4" class="st4" width="59.4" height="119.3"></rect>
<rect x="68.8" y="218.8" class="st5" width="140.1" height="148.7"></rect>
<rect x="68.8" y="367.5" class="st6" width="87.2" height="130.5"></rect>
<rect x="156" y="401.7" class="st7" width="121.9" height="96.3"></rect>
<rect x="277.9" y="465.4" class="st8" width="219.2" height="32.6"></rect>
<rect x="432.5" y="401.7" class="st9" width="64.7" height="63.6"></rect>
<rect x="2.5" y="261.1" class="st9" width="22.3" height="236.9"></rect>
<rect x="2.5" y="217.2" class="st10" width="66.3" height="43.9"></rect>
<rect x="2.5" y="80.3" class="st11" width="109.9" height="133.7"></rect>
<rect x="112.4" y="133.8" class="st12" width="96.5" height="31.6"></rect>
<rect x="112.4" y="189.9" class="st13" width="43.6" height="27.3"></rect>
<rect x="112.4" y="165.4" class="st14" width="96.5" height="24.6"></rect>
<rect x="158.1" y="189.9" class="st15" width="50.8" height="28.9"></rect>
<rect x="112.4" y="2.5" class="st16" width="153.2" height="131.3"></rect>
<rect x="2.5" y="2.5" class="st5" width="93.8" height="77.8"></rect>
<rect x="26.8" y="261.1" class="st2" width="42" height="236.9"></rect>
<rect x="96.3" y="2.5" class="st2" width="16" height="77.8"></rect>
</svg><style>@media (prefers-color-scheme: light) { :root { filter: none; } }
</style></svg>