<?xml version="1.0" encoding="UTF-8" standalone="no" ?>
<svg xmlns="http://www.w3.org/2000/svg" xmlns:xlink="http://www.w3.org/1999/xlink" version="1.1"
	 viewBox="0 0 512 512" xml:space="preserve">
<g transform="matrix(22.25 0 0 22.25 256 256)"  >
<path style="stroke: none; stroke-width: 1; stroke-dasharray: none; stroke-linecap: butt; stroke-dashoffset: 0; stroke-linejoin: miter; stroke-miterlimit: 4; fill: rgb(255,255,255); fill-rule: nonzero; opacity: 1;"  transform=" translate(-12, -12)" d="M 20.447 20.452 L 16.893 20.452 L 16.893 14.883000000000003 C 16.893 13.555000000000003 16.866 11.846000000000004 15.041 11.846000000000004 C 13.188 11.846000000000004 12.905000000000001 13.291000000000004 12.905000000000001 14.785000000000004 L 12.905000000000001 20.452000000000005 L 9.351 20.452000000000005 L 9.351 9 L 12.765 9 L 12.765 10.561 L 12.811 10.561 C 13.288 9.661 14.448 8.711 16.181 8.711 C 19.782 8.711 20.448 11.081 20.448 14.166 L 20.448 20.451999999999998 z M 5.337 7.433 C 4.193 7.433 3.2739999999999996 6.507 3.2739999999999996 5.368 C 3.2739999999999996 4.23 4.194 3.305 5.337 3.305 C 6.476999999999999 3.305 7.401 4.23 7.401 5.368 C 7.401 6.507000000000001 6.476 7.433 5.337 7.433 z M 7.119 20.451999999999998 L 3.555 20.451999999999998 L 3.555 9 L 7.119 9 L 7.119 20.451999999999998 z M 22.225 0 L 1.771 0 C 0.792 0 0 0.774 0 1.729 L 0 22.271 C 0 23.227 0.792 24 1.771 24 L 22.222 24 C 23.2 24 24 23.227 24 22.271 L 24 1.729 C 24 0.774 23.2 0 22.222 0 L 22.225 0 z" stroke-linecap="round" />
</g>
</svg>
